<svg width="196" height="244" viewBox="0 0 196 244" fill="none" xmlns="http://www.w3.org/2000/svg">
<path d="M109 49.5006C121.5 51.3339 146.8 62.4006 148 92.0006" stroke="#89BAAF" stroke-width="10" stroke-linecap="round"/>
<path d="M112 28.0006C130.269 30.6751 167.246 46.8194 169 90.0006" stroke="#89BAAF" stroke-width="10" stroke-linecap="round"/>
<path d="M112 5.00061C137.321 8.66728 188.569 30.8006 191 90.0006" stroke="#89BAAF" stroke-width="10" stroke-linecap="round"/>
<path d="M88.5 97.5006L57 103.501L24.5 122.001L5 160.001L14.5 196.501L27 202.001L34.5 192.001L27 163.001L36.5 144.001L69.5 186.001L123.5 200.501L143.5 237.001L157.5 239.001L162.5 227.501L137.5 181.501L110.5 170.501L135.5 154.001L175.5 168.001L185.5 160.001L182 149.001L132 130.501L94.5 149.001L73.5 122.001L101 114.001L123 88.0006L120 75.0006H107L88.5 97.5006Z" fill="#89BAAF" stroke="#89BAAF" stroke-width="10" stroke-linejoin="round"/>
<ellipse cx="26" cy="80.5006" rx="18" ry="17.5" fill="#89BAAF" stroke="#89BAAF" stroke-width="10"/>
</svg>
